<svg width="50" height="44" viewBox="0 0 50 44" fill="none" xmlns="http://www.w3.org/2000/svg"><path fill-rule="evenodd" clip-rule="evenodd" d="M32.44.25c-.14.15-.8 1.22-1.48 2.38-6.11 10.49-9.92 20.02-11.06 27.63-.27 1.84-.27 5.25 0 6.37.28 1.11.65 1.9 1.2 2.5 1.28 1.44 3.52 1.62 4.73.38.57-.6.84-1.3.92-2.49a4.52 4.52 0 0 0-.8-2.97 5.83 5.83 0 0 1-.92-3.27c-.31-6.26 2.6-16.66 7.57-26.96A28.59 28.59 0 0 0 33.93.81c0-.14-.12-.38-.27-.53-.36-.36-.88-.37-1.22-.03Zm2.54 18.25c-1.12.5-1.39 2.04-.5 2.95.72.74 1.75.74 2.48 0 1.38-1.42-.18-3.75-1.98-2.95Zm-25 .92c-1.12.5-1.39 2.04-.5 2.95 1.25 1.28 3.3.13 2.97-1.68a1.8 1.8 0 0 0-2.47-1.27Zm14.23 2.4c-.7 3.3-1.07 6.77-.96 9.07.08 1.6.28 2.5.77 3.38.85 1.55.98 1.87.98 2.4 0 1.6-.82 2.24-2.09 1.6-.88-.43-1.33-1.57-1.44-3.7-.18-3.31.75-8.02 2.65-13.42.2-.54.37-.97.39-.94.02.02-.11.75-.3 1.61Zm21.27.75c-.5.23-.78.7-.78 1.28 0 .48.05.62.36.94.32.32.45.37.92.37.48 0 .6-.05.92-.37.32-.33.37-.46.37-.95 0-.48-.05-.62-.35-.92-.37-.38-1.02-.54-1.44-.35Zm-29.46 1.38c-.5.22-.79.69-.79 1.28 0 .48.06.61.37.93.31.33.44.38.92.38.47 0 .6-.05.92-.38.31-.32.36-.45.36-.94 0-.48-.05-.62-.34-.92-.37-.38-1.03-.54-1.44-.35Zm13.39 0c-.5.22-.78.69-.78 1.28 0 .48.05.61.36.93.32.33.44.38.92.38.48 0 .6-.05.92-.38.31-.32.36-.45.36-.94 0-.48-.05-.62-.34-.92-.37-.38-1.02-.54-1.44-.35Zm-25 .91c-.5.23-.78.7-.78 1.28 0 .49.05.62.36.94.31.32.44.37.92.37.48 0 .6-.05.92-.37.31-.32.36-.45.36-.94 0-.49-.05-.63-.34-.93-.37-.38-1.03-.53-1.44-.35Zm34.37.46c-.5.23-.78.7-.78 1.28 0 .48.06.62.37.94.31.32.44.37.92.37.47 0 .6-.05.92-.37.31-.32.36-.46.36-.95 0-.48-.05-.62-.34-.92-.37-.38-1.03-.54-1.45-.35Zm-26.06 3.45c-2.61.5-3.8.58-8.17.58h-4l-.28.28c-.36.38-.36.9.01 1.28l.29.3 4.82-.07c4.97-.06 4.92-.06 8.25-.65 1.58-.28 2.04-.25 2.44.18.26.29.26.3.12 1.52-.32 2.97.02 5.43 1.06 7.58.4.85.69 1.26 1.36 1.96 3.86 4 10.06 2.5 11.47-2.75.15-.55.2-1.16.2-2.3 0-1.36-.04-1.65-.3-2.46-.16-.5-.52-1.3-.8-1.78-.6-1.02-.65-1.48-.21-1.9.34-.32.62-.34 1.88-.1 3.58.69 3.25.66 11.19.71l7.39.05.28-.3a.88.88 0 0 0 0-1.27l-.27-.28h-6.63c-7.1 0-7.79-.04-10.96-.6-2.72-.47-3.33-.4-4.23.55a2.63 2.63 0 0 0-.71 2.13c.04.63.13.88.68 1.86a6.2 6.2 0 0 1 .94 3.84c-.2 3-1.81 4.82-4.49 5.02-1.55.12-3-.45-4.14-1.61-1.65-1.7-2.27-4.54-1.9-8.7.12-1.32-.04-1.92-.67-2.49-1.07-.97-1.97-1.08-4.62-.58Z" fill="#D3B288"/></svg>