<svg width="50" height="46" viewBox="0 0 50 46" fill="none" xmlns="http://www.w3.org/2000/svg"><path fill-rule="evenodd" clip-rule="evenodd" d="M28.63.5c-.9.3-1.52.58-1.65.72-.4.48-.14 1.24.47 1.4l.33.08-.4.66a11.88 11.88 0 0 0-1.67 5.6c-.08 1.6.04 2.49.53 3.92l.34 1-1.05 2.21a138.5 138.5 0 0 0-1.32 2.85c-.15.35-.3.63-.33.63-.11 0-.33-.54-.5-1.26-.44-1.86.06-3.88 1.22-4.88.48-.42.56-.54.56-.9 0-.3-.08-.46-.3-.66-.4-.34-.6-.33-1.2.05-1.43.9-2.35 3.2-2.19 5.5.1 1.48.47 2.58 1.31 3.92l.24.4-.5 1.38c-.28.76-.72 2.05-.98 2.87-.26.82-.51 1.54-.56 1.6-.14.15-.76-.9-1.03-1.76a5.4 5.4 0 0 1-.24-1.89c0-1.4.26-2.05 1.07-2.72.47-.4.54-.5.54-.87 0-.33-.07-.48-.3-.66-.36-.28-.66-.29-1.1-.02-2.66 1.61-2.74 6.55-.14 9.36l.67.72-.3 1.58c-.73 4.04-.63 7.28.28 9.05 1.08 2.1 3.9 2.77 5.4 1.28.58-.57.84-1.26.93-2.4a4.2 4.2 0 0 0-.76-2.8 5.66 5.66 0 0 1-.97-3.46c-.07-1.9-.02-2.17.46-2.34.95-.34 2.01-1.52 2.15-2.38.1-.53-.17-.93-.67-1.02-.52-.1-.82.1-1.07.65-.22.52-.56.88-.56.6s.44-2.7.68-3.74l.23-.99.82.07c1.5.13 2.98-.34 3.58-1.12 1.08-1.4.63-3.53-.9-4.26-.45-.22-.56-.23-.85-.1-.39.15-.55.4-.55.84 0 .23.14.44.56.82.48.43.56.57.56.92 0 .7-.73 1.17-1.86 1.17-.58 0-.82-.09-.82-.3 0-.09.4-1.37.9-2.85l.9-2.7.52.24c.72.33 2.2.33 2.93 0 1.58-.7 2.26-2.27 1.68-3.81-.43-1.11-1.46-1.82-2.03-1.4-.5.4-.56 1-.12 1.4.7.65.77 1.28.2 1.84-.57.58-1.6.66-2.2.18l-.26-.21.42-1.04a90.62 90.62 0 0 1 2.93-6.35c.7-1.41 1.27-2.67 1.27-2.8 0-.14-.12-.37-.27-.52a.84.84 0 0 0-1.21-.02c-.3.3-2.34 3.65-3.7 6.1-1.2 2.12-1.24 2.11-1.23-.32 0-1.27.05-1.84.2-2.43.26-.96.92-2.47 1.39-3.21.35-.55.35-.55.36-.2 0 .53.37.92.9.92.32 0 .47-.07.65-.3.21-.26.23-.43.23-2V.65l-.32-.32c-.19-.19-.44-.32-.59-.32-.14 0-.91.23-1.7.5Zm-4.39 24.07a47.89 47.89 0 0 0-.75 4.16c-.05.28-.11.36-.31.36a.88.88 0 0 1-.44-.14c-.18-.13-.16-.24.25-1.58.24-.79.66-2.08.94-2.87.29-.79.52-1.45.52-1.48 0-.03.02-.02.06.01.04.04-.09.73-.27 1.54Zm-1.56 6.22.53.13.04 1.88c.04 1.69.07 1.96.35 2.76.16.49.53 1.25.8 1.7.4.63.53.93.57 1.43.15 1.67-.72 2.43-2.05 1.78-.56-.26-.97-.86-1.25-1.84-.25-.88-.24-4.19.02-5.72.2-1.22.42-2.27.45-2.27l.54.15Zm-9.98.5c-2.65.48-3.92.57-8.22.57H.55l-.28.27a.89.89 0 0 0-.27.61c0 .22.1.44.27.61l.28.28h3.94c4.38 0 5.45-.08 8.49-.57 2.27-.37 2.69-.36 3.1.07l.25.27-.14 1.5c-.34 3.4.21 5.98 1.72 8.07 2.52 3.5 7.55 4.07 10.45 1.18 1.4-1.4 1.94-2.86 1.93-5.21a5.8 5.8 0 0 0-.3-2.38 10.3 10.3 0 0 0-.8-1.72c-.59-.97-.64-1.42-.23-1.83.35-.34.49-.34 2.86.06 3.02.5 4.03.55 11.08.56h6.56l.27-.28a.86.86 0 0 0 .06-1.18l-.21-.26-7.46-.06-7.46-.07-2.4-.41c-3.15-.55-3.7-.5-4.62.44-.55.56-.78 1.2-.72 2.06.04.6.13.85.68 1.8a5.81 5.81 0 0 1 .94 3.7c-.2 2.93-1.82 4.65-4.54 4.85-1.9.13-3.77-.8-4.8-2.42a9.92 9.92 0 0 1-1.3-5.63l.14-2.07c.09-1.1-.1-1.73-.7-2.24-1.07-.93-1.96-1.04-4.64-.56Z" fill="#D3B288"/></svg>