<svg width="50" height="45" viewBox="0 0 50 45" fill="none" xmlns="http://www.w3.org/2000/svg"><path fill-rule="evenodd" clip-rule="evenodd" d="M47.38 1.36c-1.4 1.31-3.71 3.71-5.64 5.85-6.9 7.67-11.49 14.96-12.88 20.49-.57 2.28-.52 3.9.17 5.15 1.03 1.89 3.62 2.37 4.85.9a4.79 4.79 0 0 0 .77-4.52c-.45-1.47-.34-2.5.52-5.14 2.03-6.2 7-14.07 13.55-21.47 1.4-1.58 1.5-1.83 1-2.34-.52-.52-.77-.4-2.34 1.08ZM22.7 3.72c-.13.14-.78 1.15-1.43 2.25-5.9 9.9-9.58 18.88-10.67 26.07-.26 1.73-.26 4.95 0 6a5.2 5.2 0 0 0 1.15 2.37c1.24 1.35 3.4 1.52 4.57.35.55-.56.8-1.23.89-2.35a4.2 4.2 0 0 0-.77-2.8 5.4 5.4 0 0 1-.89-3.09c-.3-5.9 2.51-15.72 7.3-25.43.7-1.44 1.29-2.72 1.29-2.84 0-.13-.12-.36-.27-.5-.34-.35-.84-.36-1.17-.03Zm22.56 9.76c-2.3.4-2.66.49-2.83.7a.85.85 0 0 0 .08 1.16c.3.3.4.3 1.82.08l.44-.07-.5.53a16.68 16.68 0 0 0-4.58 9.68c-.06.68-.05.74.2 1 .37.37.86.38 1.22.02a.92.92 0 0 0 .26-.53c0-.58.36-2.25.7-3.28.72-2.16 1.77-3.9 3.38-5.58a5.71 5.71 0 0 1 1.06-.98c.02.05-.16.67-.4 1.38-.23.71-.43 1.4-.43 1.55 0 .35.46.78.85.78.6 0 .72-.23 1.68-3.13.5-1.52.92-2.87.92-3.01 0-.38-.46-.78-.89-.77-.2 0-1.53.22-2.98.47Zm-9.02 3.75c-.32.6-.87 1.7-1.22 2.46-1.95 4.28-2.64 7.57-2.06 9.85.27 1.1.28 1.64.05 2.31-.38 1.13-1.36 1.37-2.23.53-1.63-1.56.18-7.46 4.2-13.65.9-1.37 1.75-2.6 1.81-2.6.02 0-.23.5-.55 1.1Zm-21.48 6.84a35.97 35.97 0 0 0-.93 8.56c.1 1.86.35 2.69 1.23 4.02.28.42.38.71.43 1.2.14 1.63-.67 2.36-1.98 1.77-.84-.39-1.29-1.52-1.4-3.53-.18-3.12.72-7.55 2.56-12.66.18-.5.35-.9.38-.88.02.02-.11.7-.29 1.52ZM4.53 30.52c-2 .46-3.02.65-3.5.65-.92 0-1.36.86-.74 1.48.27.27.31.28 1.17.22.49-.04 1.54-.22 2.33-.41.8-.2 1.74-.36 2.11-.36.6 0 .7.02.96.28l.3.29L7 34.14c-.32 3.34.21 5.85 1.66 7.9 2.44 3.42 7.25 3.97 10.07 1.15 1.36-1.35 1.89-2.78 1.88-5.1 0-1.29-.03-1.56-.28-2.32a10.6 10.6 0 0 0-.8-1.72c-.59-1-.63-1.4-.19-1.78.28-.24.34-.25 1.33-.16 1.14.1 2.22.1 3.8.03 1.03-.05 1.06-.04 1.34.24l.3.3-.13 1.17c-.31 2.81.02 5.12 1.02 7.16.4.84.66 1.18 1.37 1.9a6.39 6.39 0 0 0 5.02 2.04 5.55 5.55 0 0 0 3.3-.92c1.88-1.14 3.07-3.68 2.92-6.26a7.95 7.95 0 0 0-1.06-3.55c-.6-1.13-.65-1.53-.26-1.92.33-.33.5-.33 2.44 0 2.47.44 4.1.6 6.05.6 1.78 0 1.81 0 2.07-.26a.82.82 0 0 0 0-1.2c-.25-.26-.3-.27-1.92-.27-2.04 0-3.33-.12-5.78-.55-2.56-.45-3.3-.36-4.16.53a2.46 2.46 0 0 0-.67 2c.03.57.12.82.54 1.54a6.64 6.64 0 0 1 1.03 3.24c.17 3.05-1.81 5.35-4.6 5.35-2.68 0-4.67-1.78-5.4-4.81a17.6 17.6 0 0 1-.17-4.87c.16-1.64-.2-2.34-1.5-2.99l-.7-.34-1.48.13c-1.1.1-1.82.1-2.86 0-1.98-.16-2.74.08-3.43 1.1-.63.95-.57 1.94.21 3.3.84 1.46.92 1.74.93 3.24.01 1.56-.23 2.49-.9 3.43-1.57 2.2-5.13 2.42-7.23.44a7.22 7.22 0 0 1-2-4.28c-.16-1.09-.16-1.97.03-4.27.09-1.07-.1-1.68-.67-2.18-.95-.84-1.99-1.03-3.6-.66Z" fill="#D3B288"/></svg>