<svg width="33" height="40" viewBox="0 0 33 40" fill="none" xmlns="http://www.w3.org/2000/svg"><g clip-path="url(#a)"><path d="M28.87 26.74c2.74-2.72 4.1-6.49 4.1-11.23 0-4.75-1.4-8.55-4.1-11.23C26.16 1.59 22.2.25 17.1.25H4.03v12.61H2.25V0H0v40h6.27V19.28c6.31.36 11.8 3.8 15.04 8.87-1.28.26-2.67.4-4.2.4h-5.7v2.25h5.7c1.96 0 3.74-.22 5.34-.62 1.28 2.61 2 5.54 2 8.66v1.12h6.27v-1.12c0-4.1-.93-8-2.6-11.45.28-.18.53-.4.75-.65ZM17.1 2.54c4.49 0 7.9 1.16 10.19 3.4 2.28 2.25 3.42 5.47 3.42 9.6s-1.14 7.36-3.42 9.6c-.1.08-.18.19-.29.26A25.4 25.4 0 0 0 6.27 12.86V2.54h10.84ZM2.25 37.72V15.1h1.78v22.6H2.25Zm4.02-20.73v-1.85A23.4 23.4 0 0 1 25.23 26.7c-.5.3-1.07.55-1.64.8A21.57 21.57 0 0 0 6.27 17Zm22.2 20.73h-1.81a21.8 21.8 0 0 0-2.03-8.23c.57-.21 1.1-.5 1.63-.8a23.97 23.97 0 0 1 2.21 9.03Z" fill="#D3B288"/></g><defs><clipPath id="a"><path fill="#fff" d="M0 0h33v40H0z"/></clipPath></defs></svg>