<svg width="50" height="50" viewBox="0 0 50 50" fill="none" xmlns="http://www.w3.org/2000/svg"><path fill-rule="evenodd" clip-rule="evenodd" d="M7.64.11c-1.01.2-2.29.9-3.12 1.73a6.17 6.17 0 0 0-.02 8.77 5.77 5.77 0 0 0 4.42 1.82c1.32 0 2.23-.24 3.19-.84l.54-.34 2.38 2.38 2.4 2.39-.6.9a9.7 9.7 0 0 0-.6 9.74c.17.33.27.64.22.68-.05.05-1.35.98-2.88 2.06L10.8 31.4l-.3-.24a8.46 8.46 0 0 0-2.27-1.34 6.26 6.26 0 0 0-8.15 6.82c.34 2.36 2 4.27 4.38 5.08.85.29 2.72.29 3.58 0a6.49 6.49 0 0 0 4.2-4.2c.16-.46.2-.92.2-1.84a5.38 5.38 0 0 0-.54-2.64c-.06-.14.57-.64 2.78-2.22l2.86-2.04.53.5a10.08 10.08 0 0 0 5.22 2.7l.79.14.02 3.63.03 3.64-.38.07c-.74.14-1.9.82-2.55 1.5a5.25 5.25 0 0 0-.01 7.4 5.29 5.29 0 0 0 7.67 0c2.1-2.2 2.01-5.53-.19-7.57a5.77 5.77 0 0 0-2.39-1.33l-.36-.07.03-3.64.03-3.65.27-.03a9.97 9.97 0 0 0 5.68-2.8l.75-.75 2.68 1.78 2.73 1.81c.02.02-.07.35-.2.74A6.27 6.27 0 0 0 42 40.82c.86.28 2.73.28 3.58 0a6.48 6.48 0 0 0 4.2-4.2c.3-.86.3-2.73 0-3.58a6.31 6.31 0 0 0-6.48-4.43 5.99 5.99 0 0 0-3.54 1.5c-.33.3-.61.48-.7.44-.13-.05-5.13-3.34-5.31-3.5-.02-.01.14-.47.36-1.02 1.29-3.18.87-6.55-1.2-9.57-.14-.21-.02-.36 1.85-2.12 1.1-1.05 2.25-2.12 2.56-2.4l.56-.48.64.35a5.26 5.26 0 0 0 6.29-.84 5.27 5.27 0 0 0 .14-7.53 5.28 5.28 0 0 0-7.54-.14 5.29 5.29 0 0 0-1.06 6.28l.28.54-1.76 1.66-2.55 2.42-.8.76-.73-.56a9.78 9.78 0 0 0-11.17-.27l-.91.6-2.39-2.38-2.39-2.39.34-.54c.6-.95.85-1.86.85-3.18a5.8 5.8 0 0 0-1.8-4.42A6.32 6.32 0 0 0 7.63.12Zm3.12 2.09c1 .47 1.66 1.11 2.16 2.12.4.8.42.9.42 1.92 0 1.01-.03 1.12-.42 1.92a4.3 4.3 0 0 1-2.19 2.14c-.68.32-.85.35-1.8.35-.97 0-1.14-.03-1.82-.35a4.3 4.3 0 0 1-2.19-2.14c-.39-.8-.41-.9-.41-1.92 0-.96.03-1.13.35-1.8a4.41 4.41 0 0 1 1.92-2.1 3.82 3.82 0 0 1 2.4-.52 3.6 3.6 0 0 1 1.58.38Zm-2.68.57a3.6 3.6 0 0 0-2.7 3.13c-.06.6-.04.68.22.94.63.62 1.39.27 1.54-.72.16-.98.68-1.5 1.67-1.66.97-.15 1.34-.91.73-1.52-.29-.29-.75-.34-1.46-.17ZM42.8 4.02c.76.4 1.1.76 1.53 1.6.26.48.3.7.3 1.51 0 .87-.03 1.01-.37 1.66a3.21 3.21 0 0 1-1.62 1.55c-.49.26-.71.3-1.52.3s-1.03-.04-1.52-.3a3.21 3.21 0 0 1-1.62-1.55c-.35-.65-.38-.79-.37-1.66 0-1.12.27-1.79 1-2.51a3.53 3.53 0 0 1 4.2-.6Zm-2.57.58a3.54 3.54 0 0 0-1.66 1.7c-.2.72-.17 1.14.14 1.45.56.56 1.52.16 1.52-.62 0-.46.43-.9.89-.9s.9-.43.9-.88c0-.76-.77-1.08-1.8-.75Zm-12.8 10.06c1.27.4 2.21 1 3.24 2.02a7.68 7.68 0 0 1 2.03 3.24c.26.79.3 1.07.3 2.4a5.9 5.9 0 0 1-.3 2.4 7.68 7.68 0 0 1-2.03 3.24 7.69 7.69 0 0 1-3.24 2.03c-.8.26-1.07.3-2.4.3a5.92 5.92 0 0 1-2.4-.3 7.69 7.69 0 0 1-3.25-2.03 7.68 7.68 0 0 1-2.03-3.24 5.9 5.9 0 0 1-.3-2.4c0-1.33.04-1.61.3-2.4a7.78 7.78 0 0 1 2.03-3.25 7.8 7.8 0 0 1 4.25-2.28c.98-.18 2.8-.05 3.8.27Zm-3.69 1.54a6.36 6.36 0 0 0-4.97 6.04c0 .84.92 1.29 1.5.72.19-.2.26-.44.32-1.02a4.5 4.5 0 0 1 4.04-4.05c.6-.06.84-.13 1.03-.33a.84.84 0 0 0-.01-1.22c-.3-.3-.85-.34-1.91-.14Zm21.9 14.59c1 .47 1.66 1.11 2.16 2.12.4.8.42.9.42 1.92 0 1.01-.03 1.12-.42 1.91a4.3 4.3 0 0 1-2.19 2.15c-.67.32-.85.35-1.8.35-.97 0-1.14-.03-1.82-.35a4.3 4.3 0 0 1-2.19-2.15c-.39-.8-.41-.9-.41-1.9 0-.97.03-1.14.35-1.82a4.41 4.41 0 0 1 1.92-2.08 3.82 3.82 0 0 1 2.4-.53 3.6 3.6 0 0 1 1.58.38Zm-37.56.9c1.01.46 1.67 1.1 2.17 2.12.39.8.41.9.41 1.91 0 1.02-.02 1.12-.41 1.92a4.3 4.3 0 0 1-2.2 2.14c-.67.32-.84.35-1.8.35-.96 0-1.13-.03-1.81-.35a4.3 4.3 0 0 1-2.19-2.14c-.4-.8-.42-.9-.42-1.91 0-.97.04-1.14.36-1.82a4.41 4.41 0 0 1 1.92-2.08 3.82 3.82 0 0 1 2.39-.53 3.6 3.6 0 0 1 1.58.38Zm34.88-.33a3.6 3.6 0 0 0-2.7 3.13c-.06.6-.04.68.22.94.63.62 1.39.27 1.54-.72.16-.98.68-1.5 1.67-1.66.97-.15 1.34-.91.73-1.52-.28-.29-.75-.34-1.46-.17Zm-37.55.9a3.6 3.6 0 0 0-2.7 3.12c-.06.6-.04.68.22.95.62.62 1.39.26 1.54-.72.16-1 .68-1.5 1.66-1.66.98-.16 1.35-.92.74-1.53-.29-.28-.75-.34-1.46-.17Zm21.3 9.28c.75.4 1.1.76 1.53 1.6.25.48.3.7.3 1.52 0 .87-.03 1-.38 1.65a3.21 3.21 0 0 1-1.61 1.56c-.5.25-.71.3-1.52.3s-1.04-.05-1.53-.3a3.21 3.21 0 0 1-1.61-1.56c-.35-.65-.38-.78-.38-1.65 0-1.12.27-1.8 1-2.52a3.53 3.53 0 0 1 4.2-.6Zm-2.58.58a3.54 3.54 0 0 0-1.65 1.71c-.21.72-.17 1.14.14 1.45.55.55 1.51.16 1.51-.62 0-.46.44-.9.9-.9a.9.9 0 0 0 .62-.27c.59-.6.15-1.53-.7-1.5-.24 0-.6.06-.82.13Z" fill="#D3B288"/></svg>