<svg width="50" height="38" viewBox="0 0 50 38" fill="none" xmlns="http://www.w3.org/2000/svg"><path fill-rule="evenodd" clip-rule="evenodd" d="M24.46.2c-.25.23-10.6 19.49-10.96 20.4-.13.34-.25.62-.27.64-.01.02-.26-.35-.54-.8a8.6 8.6 0 0 0-2.94-2.8l-.77-.39-4.2-.03-4.22-.04-.28.29a.86.86 0 0 0 0 1.26l.27.28h7.88l.6.28a6.86 6.86 0 0 1 2.38 2.44c.67 1.15.98 2.3 1.1 4a12.55 12.55 0 0 0 9.16 11.8 12.49 12.49 0 0 0 15.06-7.78c.46-1.27.65-2.26.77-4 .06-.82.18-1.75.27-2.08.52-1.92 1.92-3.8 3.3-4.43.48-.22.74-.23 4.44-.23h3.94l.28-.28a.86.86 0 0 0 0-1.26l-.29-.29-4.21.04-4.21.03-.77.38a9 9 0 0 0-3.37 3.47c-.1.17-.15.11-.35-.42A715.2 715.2 0 0 0 25.53.2.94.94 0 0 0 25 0a.94.94 0 0 0-.54.2Zm5.44 11.73a248.5 248.5 0 0 1 5.15 9.9A10.7 10.7 0 0 1 19.1 34.4a10.88 10.88 0 0 1-4.5-6.33 8.33 8.33 0 0 1-.26-2.5c0-1.64.17-2.67.67-3.96.31-.8 9.87-18.66 9.99-18.66.04 0 2.25 4.04 4.9 8.99Zm-7.3 5.54c-.27.28-.28.31-.28 2.27v1.98h-1.96c-2.67 0-2.5-.17-2.5 2.72s-.17 2.71 2.5 2.71h1.96v1.99c0 2.7-.17 2.54 2.68 2.54s2.68.16 2.68-2.54v-1.99h1.96c2.67 0 2.5.18 2.5-2.71 0-2.9.17-2.72-2.5-2.72h-1.96v-1.98c0-2.7.17-2.54-2.68-2.54-2.11 0-2.13 0-2.4.27ZM25.9 21c0 2.69-.15 2.54 2.5 2.54h1.96v1.81H28.4c-2.65 0-2.5-.15-2.5 2.54v1.99h-1.8v-1.99c0-2.69.15-2.54-2.5-2.54h-1.96v-1.8h1.96c2.65 0 2.5.14 2.5-2.55v-1.98h1.8v1.98Z" fill="#D3B288"/></svg>